HIERARCHY
ROOT hip
{
	OFFSET 0.000000 0.000000 0.000000
	CHANNELS 6 Xposition Yposition Zposition Xrotation Zrotation Yrotation 
	JOINT abdomen
	{
		OFFSET 0.000000 3.422050 0.000000
		CHANNELS 3 Xrotation Zrotation Yrotation 
		JOINT chest
		{
			OFFSET 0.000000 8.486693 -0.6844110
			CHANNELS 3 Xrotation Zrotation Yrotation 
			JOINT neck
			{
				OFFSET 0.000000 10.26616 -0.2737640
				CHANNELS 3 Xrotation Zrotation Yrotation 
				JOINT head
				{
					OFFSET 0.000000 3.148285 0.000000
					CHANNELS 3 Xrotation Zrotation Yrotation 
					End Site
					{
						OFFSET 0.000000 3.148289 0.000000
					}
				}
			}
			JOINT lCollar
			{
				OFFSET 3.422053 6.707223 -0.8212930
				CHANNELS 3 Yrotation Zrotation Xrotation 
				JOINT lShldr
				{
					OFFSET 3.285171 0.000000 0.000000
					CHANNELS 3 Zrotation Yrotation Xrotation 
					JOINT lForeArm
					{
						OFFSET 10.12928 0.000000 0.000000
						CHANNELS 3 Yrotation Zrotation Xrotation 
						JOINT lHand
						{
							OFFSET 8.486692 0.000000 0.000000
							CHANNELS 3 Zrotation Yrotation Xrotation 
							End Site
							{
								OFFSET 4.106464 0.000000 0.000000
							}
						}
					}
				}
			}
			JOINT rCollar
			{
				OFFSET -3.558935 6.707223 -0.8212930
				CHANNELS 3 Yrotation Zrotation Xrotation 
				JOINT rShldr
				{
					OFFSET -3.148289 0.000000 0.000000
					CHANNELS 3 Zrotation Yrotation Xrotation 
					JOINT rForeArm
					{
						OFFSET -10.26616 0.000000 0.000000
						CHANNELS 3 Yrotation Zrotation Xrotation 
						JOINT rHand
						{
							OFFSET -8.349810 0.000000 0.000000
							CHANNELS 3 Zrotation Yrotation Xrotation 
							End Site
							{
								OFFSET -4.106464 0.000000 0.000000
							}
						}
					}
				}
			}
		}
	}
	JOINT lThigh
	{
		OFFSET 5.338403 -1.642589 1.368821
		CHANNELS 3 Xrotation Zrotation Yrotation 
		JOINT lShin
		{
			OFFSET -2.053232 -20.12167 0.000000
			CHANNELS 3 Xrotation Zrotation Yrotation 
			JOINT lFoot
			{
				OFFSET 0.000000 -19.30038 -1.231939
				CHANNELS 3 Xrotation Yrotation Zrotation 
				End Site
				{
					OFFSET 0.000000 -2.463878 4.653993
				}
			}
		}
	}
	JOINT rThigh
	{
		OFFSET -5.338403 -1.642589 1.368821
		CHANNELS 3 Xrotation Zrotation Yrotation 
		JOINT rShin
		{
			OFFSET 2.053232 -20.12167 0.000000
			CHANNELS 3 Xrotation Zrotation Yrotation 
			JOINT rFoot
			{
				OFFSET 0.000000 -19.30038 -1.231939
				CHANNELS 3 Xrotation Yrotation Zrotation 
				End Site
				{
					OFFSET 0.000000 -2.463878 4.653993
				}
			}
		}
	}
}
MOTION
Frames:	19
Frame Time:	0.03333333
0.000000 43.52850 30.00000 0.000000 0.000000 0.000000 20.00000 0.000000 0.000000 0.000000 0.000000 -1.037037 0.000000 0.000000 0.000000 -10.00000 0.000000 0.000000 0.000000 0.000000 0.000000 -28.21482 -17.49630 6.348148 -67.88148 5.000000 0.000000 24.00000 0.000000 30.00000 0.000000 0.000000 0.000000 -6.000000 79.48148 -25.00000 51.41481 -5.000000 0.000000 0.000000 0.000000 0.000000 -90.00000 5.000000 0.000000 90.00000 0.000000 0.000000 0.000000 0.000000 0.000000 -90.00000 -5.000000 0.000000 90.00000 0.000000 0.000000 0.000000 0.000000 0.000000 
0.000000 43.52850 30.00000 0.000000 0.000000 0.000000 20.00000 0.000000 0.000000 0.000000 0.000000 -1.333333 0.000000 0.000000 0.000000 -10.00000 0.000000 0.000000 0.000000 0.000000 0.000000 -28.13333 -17.06667 6.233333 -68.13333 5.000000 0.000000 24.00000 0.000000 30.00000 0.000000 0.000000 0.000000 -6.000000 79.33334 -25.00000 51.53333 -5.000000 0.000000 0.000000 0.000000 0.000000 -90.00000 5.000000 0.000000 90.00000 0.000000 0.000000 0.000000 0.000000 0.000000 -90.00000 -5.000000 0.000000 90.00000 0.000000 0.000000 0.000000 0.000000 0.000000 
0.000000 43.52850 30.00000 0.000000 0.000000 0.000000 20.00000 0.000000 0.000000 0.000000 0.000000 -1.629630 0.000000 0.000000 0.000000 -10.00000 0.000000 0.000000 0.000000 0.000000 0.000000 -28.05185 -16.63704 6.118518 -68.38519 5.000000 0.000000 24.00000 0.000000 30.00000 0.000000 0.000000 0.000000 -6.000000 79.18519 -25.00000 51.65185 -5.000000 0.000000 0.000000 0.000000 0.000000 -90.00000 5.000000 0.000000 90.00000 0.000000 0.000000 0.000000 0.000000 0.000000 -90.00000 -5.000000 0.000000 90.00000 0.000000 0.000000 0.000000 0.000000 0.000000 
0.000000 43.52850 30.00000 0.000000 0.000000 0.000000 20.00000 0.000000 0.000000 0.000000 0.000000 -1.925926 0.000000 0.000000 0.000000 -10.00000 0.000000 0.000000 0.000000 0.000000 0.000000 -27.97037 -16.20741 6.003704 -68.63704 5.000000 0.000000 24.00000 0.000000 30.00000 0.000000 0.000000 0.000000 -6.000000 79.03704 -25.00000 51.77037 -5.000000 0.000000 0.000000 0.000000 0.000000 -90.00000 5.000000 0.000000 90.00000 0.000000 0.000000 0.000000 0.000000 0.000000 -90.00000 -5.000000 0.000000 90.00000 0.000000 0.000000 0.000000 0.000000 0.000000 
0.000000 43.52850 30.00000 0.000000 0.000000 0.000000 20.00000 0.000000 0.000000 0.000000 0.000000 -2.222222 0.000000 0.000000 0.000000 -10.00000 0.000000 0.000000 0.000000 0.000000 0.000000 -27.88889 -15.77778 5.888889 -68.88889 5.000000 0.000000 24.00000 0.000000 30.00000 0.000000 0.000000 0.000000 -6.000000 78.88889 -25.00000 51.88889 -5.000000 0.000000 0.000000 0.000000 0.000000 -90.00000 5.000000 0.000000 90.00000 0.000000 0.000000 0.000000 0.000000 0.000000 -90.00000 -5.000000 0.000000 90.00000 0.000000 0.000000 0.000000 0.000000 0.000000 
0.000000 43.52850 30.00000 0.000000 0.000000 0.000000 20.00000 0.000000 0.000000 0.000000 0.000000 -2.518518 0.000000 0.000000 0.000000 -10.00000 0.000000 0.000000 0.000000 0.000000 0.000000 -27.80741 -15.34815 5.774074 -69.14074 5.000000 0.000000 24.00000 0.000000 30.00000 0.000000 0.000000 0.000000 -6.000000 78.74074 -25.00000 52.00741 -5.000000 0.000000 0.000000 0.000000 0.000000 -90.00000 5.000000 0.000000 90.00000 0.000000 0.000000 0.000000 0.000000 0.000000 -90.00000 -5.000000 0.000000 90.00000 0.000000 0.000000 0.000000 0.000000 0.000000 
0.000000 43.52850 30.00000 0.000000 0.000000 0.000000 20.00000 0.000000 0.000000 0.000000 0.000000 -2.814815 0.000000 0.000000 0.000000 -10.00000 0.000000 0.000000 0.000000 0.000000 0.000000 -27.72593 -14.91852 5.659259 -69.39259 5.000000 0.000000 24.00000 0.000000 30.00000 0.000000 0.000000 0.000000 -6.000000 78.59259 -25.00000 52.12593 -5.000000 0.000000 0.000000 0.000000 0.000000 -90.00000 5.000000 0.000000 90.00000 0.000000 0.000000 0.000000 0.000000 0.000000 -90.00000 -5.000000 0.000000 90.00000 0.000000 0.000000 0.000000 0.000000 0.000000 
0.000000 43.52850 30.00000 0.000000 0.000000 0.000000 20.00000 0.000000 0.000000 0.000000 0.000000 -3.111111 0.000000 0.000000 0.000000 -10.00000 0.000000 0.000000 0.000000 0.000000 0.000000 -27.64444 -14.48889 5.544445 -69.64445 5.000000 0.000000 24.00000 0.000000 30.00000 0.000000 0.000000 0.000000 -6.000000 78.44444 -25.00000 52.24445 -5.000000 0.000000 0.000000 0.000000 0.000000 -90.00000 5.000000 0.000000 90.00000 0.000000 0.000000 0.000000 0.000000 0.000000 -90.00000 -5.000000 0.000000 90.00000 0.000000 0.000000 0.000000 0.000000 0.000000 
0.000000 43.52850 30.00000 0.000000 0.000000 0.000000 20.00000 0.000000 0.000000 0.000000 0.000000 -3.407408 0.000000 0.000000 0.000000 -10.00000 0.000000 0.000000 0.000000 0.000000 0.000000 -27.56296 -14.05926 5.429630 -69.89629 5.000000 0.000000 24.00000 0.000000 30.00000 0.000000 0.000000 0.000000 -6.000000 78.29630 -25.00000 52.36296 -5.000000 0.000000 0.000000 0.000000 0.000000 -90.00000 5.000000 0.000000 90.00000 0.000000 0.000000 0.000000 0.000000 0.000000 -90.00000 -5.000000 0.000000 90.00000 0.000000 0.000000 0.000000 0.000000 0.000000 
0.000000 43.52850 30.00000 0.000000 0.000000 0.000000 20.00000 0.000000 0.000000 0.000000 0.000000 -3.703704 0.000000 0.000000 0.000000 -10.00000 0.000000 0.000000 0.000000 0.000000 0.000000 -27.48148 -13.62963 5.314815 -70.14815 5.000000 0.000000 24.00000 0.000000 30.00000 0.000000 0.000000 0.000000 -6.000000 78.14815 -25.00000 52.48148 -5.000000 0.000000 0.000000 0.000000 0.000000 -90.00000 5.000000 0.000000 90.00000 0.000000 0.000000 0.000000 0.000000 0.000000 -90.00000 -5.000000 0.000000 90.00000 0.000000 0.000000 0.000000 0.000000 0.000000 
0.000000 43.52850 30.00000 0.000000 0.000000 0.000000 20.00000 0.000000 0.000000 0.000000 0.000000 -4.000000 0.000000 0.000000 0.000000 -10.00000 0.000000 0.000000 0.000000 0.000000 0.000000 -27.40000 -13.20000 5.200000 -70.40000 5.000000 0.000000 24.00000 0.000000 30.00000 0.000000 0.000000 0.000000 -6.000000 78.00000 -25.00000 52.60000 -5.000000 0.000000 0.000000 0.000000 0.000000 -90.00000 5.000000 0.000000 90.00000 0.000000 0.000000 0.000000 0.000000 0.000000 -90.00000 -5.000000 0.000000 90.00000 0.000000 0.000000 0.000000 0.000000 0.000000 
0.000000 43.52850 30.00000 0.000000 0.000000 0.000000 20.00000 0.000000 0.000000 0.000000 0.000000 -4.296296 0.000000 0.000000 0.000000 -10.00000 0.000000 0.000000 0.000000 0.000000 0.000000 -27.31852 -12.77037 5.085185 -70.65186 5.000000 0.000000 24.00000 0.000000 30.00000 0.000000 0.000000 0.000000 -6.000000 77.85185 -25.00000 52.71852 -5.000000 0.000000 0.000000 0.000000 0.000000 -90.00000 5.000000 0.000000 90.00000 0.000000 0.000000 0.000000 0.000000 0.000000 -90.00000 -5.000000 0.000000 90.00000 0.000000 0.000000 0.000000 0.000000 0.000000 
0.000000 43.52850 30.00000 0.000000 0.000000 0.000000 20.00000 0.000000 0.000000 0.000000 0.000000 -4.592593 0.000000 0.000000 0.000000 -10.00000 0.000000 0.000000 0.000000 0.000000 0.000000 -27.23704 -12.34074 4.970370 -70.90370 5.000000 0.000000 24.00000 0.000000 30.00000 0.000000 0.000000 0.000000 -6.000000 77.70370 -25.00000 52.83704 -5.000000 0.000000 0.000000 0.000000 0.000000 -90.00000 5.000000 0.000000 90.00000 0.000000 0.000000 0.000000 0.000000 0.000000 -90.00000 -5.000000 0.000000 90.00000 0.000000 0.000000 0.000000 0.000000 0.000000 
0.000000 43.52850 30.00000 0.000000 0.000000 0.000000 20.00000 0.000000 0.000000 0.000000 0.000000 -4.888889 0.000000 0.000000 0.000000 -10.00000 0.000000 0.000000 0.000000 0.000000 0.000000 -27.15556 -11.91111 4.855556 -71.15556 5.000000 0.000000 24.00000 0.000000 30.00000 0.000000 0.000000 0.000000 -6.000000 77.55556 -25.00000 52.95555 -5.000000 0.000000 0.000000 0.000000 0.000000 -90.00000 5.000000 0.000000 90.00000 0.000000 0.000000 0.000000 0.000000 0.000000 -90.00000 -5.000000 0.000000 90.00000 0.000000 0.000000 0.000000 0.000000 0.000000 
0.000000 43.52850 30.00000 0.000000 0.000000 0.000000 20.00000 0.000000 0.000000 0.000000 0.000000 -5.185185 0.000000 0.000000 0.000000 -10.00000 0.000000 0.000000 0.000000 0.000000 0.000000 -27.07407 -11.48148 4.740741 -71.40741 5.000000 0.000000 24.00000 0.000000 30.00000 0.000000 0.000000 0.000000 -6.000000 77.40741 -25.00000 53.07407 -5.000000 0.000000 0.000000 0.000000 0.000000 -90.00000 5.000000 0.000000 90.00000 0.000000 0.000000 0.000000 0.000000 0.000000 -90.00000 -5.000000 0.000000 90.00000 0.000000 0.000000 0.000000 0.000000 0.000000 
0.000000 43.52850 30.00000 0.000000 0.000000 0.000000 20.00000 0.000000 0.000000 0.000000 0.000000 -5.481482 0.000000 0.000000 0.000000 -10.00000 0.000000 0.000000 0.000000 0.000000 0.000000 -26.99259 -11.05185 4.625926 -71.65926 5.000000 0.000000 24.00000 0.000000 30.00000 0.000000 0.000000 0.000000 -6.000000 77.25926 -25.00000 53.19259 -5.000000 0.000000 0.000000 0.000000 0.000000 -90.00000 5.000000 0.000000 90.00000 0.000000 0.000000 0.000000 0.000000 0.000000 -90.00000 -5.000000 0.000000 90.00000 0.000000 0.000000 0.000000 0.000000 0.000000 
0.000000 43.52850 30.00000 0.000000 0.000000 0.000000 20.00000 0.000000 0.000000 0.000000 0.000000 -5.777778 0.000000 0.000000 0.000000 -10.00000 0.000000 0.000000 0.000000 0.000000 0.000000 -26.91111 -10.62222 4.511111 -71.91111 5.000000 0.000000 24.00000 0.000000 30.00000 0.000000 0.000000 0.000000 -6.000000 77.11111 -25.00000 53.31111 -5.000000 0.000000 0.000000 0.000000 0.000000 -90.00000 5.000000 0.000000 90.00000 0.000000 0.000000 0.000000 0.000000 0.000000 -90.00000 -5.000000 0.000000 90.00000 0.000000 0.000000 0.000000 0.000000 0.000000 
0.000000 43.52850 30.00000 0.000000 0.000000 0.000000 20.00000 0.000000 0.000000 0.000000 0.000000 -6.074074 0.000000 0.000000 0.000000 -10.00000 0.000000 0.000000 0.000000 0.000000 0.000000 -26.82963 -10.19259 4.396297 -72.16296 5.000000 0.000000 24.00000 0.000000 30.00000 0.000000 0.000000 0.000000 -6.000000 76.96296 -25.00000 53.42963 -5.000000 0.000000 0.000000 0.000000 0.000000 -90.00000 5.000000 0.000000 90.00000 0.000000 0.000000 0.000000 0.000000 0.000000 -90.00000 -5.000000 0.000000 90.00000 0.000000 0.000000 0.000000 0.000000 0.000000 
0.000000 43.52850 30.00000 0.000000 0.000000 0.000000 20.00000 0.000000 0.000000 0.000000 0.000000 -6.370370 0.000000 0.000000 0.000000 -10.00000 0.000000 0.000000 0.000000 0.000000 0.000000 -26.74815 -9.762963 4.281481 -72.41482 5.000000 0.000000 24.00000 0.000000 30.00000 0.000000 0.000000 0.000000 -6.000000 76.81481 -25.00000 53.54815 -5.000000 0.000000 0.000000 0.000000 0.000000 -90.00000 5.000000 0.000000 90.00000 0.000000 0.000000 0.000000 0.000000 0.000000 -90.00000 -5.000000 0.000000 90.00000 0.000000 0.000000 0.000000 0.000000 0.000000 
